<?xml version="1.0" encoding="UTF-8" ?>
<!DOCTYPE svg PUBLIC "-//W3C//DTD SVG 1.1//EN" "http://www.w3.org/Graphics/SVG/1.1/DTD/svg11.dtd">
<svg width="250pt" height="250pt" viewBox="0 0 250 250" version="1.1" xmlns="http://www.w3.org/2000/svg">
<g id="#ffffffff">
<path fill="#ffffff" opacity="1.00" d=" M 164.35 118.68 C 168.36 125.12 167.09 135.48 159.89 139.17 C 161.29 136.45 163.38 134.03 164.00 130.95 C 165.26 126.95 164.42 122.77 164.35 118.68 Z" />
<path fill="#ffffff" opacity="1.00" d=" M 97.53 135.05 C 99.45 138.75 100.15 142.99 102.44 146.52 C 104.17 149.48 107.14 151.32 109.85 153.26 C 101.39 152.42 96.65 142.77 97.53 135.05 Z" />
<path fill="#ffffff" opacity="1.00" d=" M 108.12 172.00 C 99.81 162.98 95.09 150.90 93.83 138.82 C 96.14 143.79 97.46 149.16 100.12 153.97 C 105.08 163.42 112.48 172.21 122.54 176.37 C 125.54 177.77 128.96 177.65 131.96 179.00 C 123.45 182.02 114.09 178.30 108.12 172.00 Z" />
</g>
<g id="#000000ff">
<path fill="#000000" opacity="1.00" d=" M 112.48 60.64 C 116.86 58.16 121.63 61.14 125.08 63.84 C 128.10 61.94 131.21 59.35 135.01 59.69 C 138.88 60.13 141.46 63.32 143.95 65.97 C 148.32 70.71 152.16 76.59 158.59 78.70 C 164.16 81.31 171.47 76.07 170.81 69.97 C 170.53 66.78 168.19 64.43 166.42 61.97 C 171.78 59.90 174.78 65.69 176.01 69.89 C 177.44 77.37 177.24 85.58 173.43 92.37 C 170.34 98.13 164.83 103.09 158.10 103.73 C 149.57 104.63 141.78 99.79 135.42 94.65 C 131.24 91.43 128.83 86.62 125.10 82.99 C 121.29 87.23 118.36 92.31 113.68 95.71 C 108.27 99.80 102.00 103.42 95.07 103.80 C 89.58 104.14 84.12 101.64 80.53 97.52 C 73.12 89.22 71.67 76.61 75.68 66.44 C 77.01 62.95 80.47 60.78 84.21 61.48 C 82.75 64.05 80.26 66.05 79.66 69.08 C 78.57 73.13 81.67 76.93 85.09 78.67 C 88.17 80.28 91.74 78.97 94.58 77.46 C 101.97 73.46 105.23 64.77 112.48 60.64 Z" />
<path fill="#000000" opacity="1.00" d=" M 114.14 98.16 C 118.53 94.80 120.63 89.38 124.94 85.99 C 127.81 88.22 129.39 91.55 131.71 94.27 C 136.91 100.68 144.65 105.03 152.90 105.83 C 157.59 106.56 162.30 105.74 166.96 105.18 C 171.28 111.93 172.72 120.13 172.70 128.03 C 172.65 133.61 171.80 139.44 168.63 144.16 C 168.01 143.13 167.38 142.11 166.74 141.11 C 165.81 152.51 160.61 163.45 151.85 170.91 C 151.69 170.14 151.35 168.61 151.19 167.85 C 149.48 170.54 147.87 173.34 145.45 175.48 C 142.44 178.76 138.11 181.03 136.28 185.26 C 135.38 187.19 136.48 189.17 137.32 190.88 C 121.85 189.29 106.04 182.01 97.97 168.16 C 97.71 168.53 97.19 169.28 96.92 169.65 C 87.65 163.26 86.41 150.81 85.49 140.51 C 84.68 141.33 83.91 142.18 83.15 143.05 C 77.02 131.10 78.07 116.92 82.69 104.66 C 93.43 106.84 105.76 106.00 114.14 98.16 M 164.35 118.68 C 164.42 122.77 165.26 126.95 164.00 130.95 C 163.38 134.03 161.29 136.45 159.89 139.17 C 167.09 135.48 168.36 125.12 164.35 118.68 M 97.53 135.05 C 96.65 142.77 101.39 152.42 109.85 153.26 C 107.14 151.32 104.17 149.48 102.44 146.52 C 100.15 142.99 99.45 138.75 97.53 135.05 M 108.12 172.00 C 114.09 178.30 123.45 182.02 131.96 179.00 C 128.96 177.65 125.54 177.77 122.54 176.37 C 112.48 172.21 105.08 163.42 100.12 153.97 C 97.46 149.16 96.14 143.79 93.83 138.82 C 95.09 150.90 99.81 162.98 108.12 172.00 Z" />
</g>
</svg>
