<?xml version="1.0" encoding="UTF-8" ?>
<!DOCTYPE svg PUBLIC "-//W3C//DTD SVG 1.1//EN" "http://www.w3.org/Graphics/SVG/1.1/DTD/svg11.dtd">
<svg width="250pt" height="250pt" viewBox="0 0 250 250" version="1.1" xmlns="http://www.w3.org/2000/svg">
<g id="#ffffffff">
<path fill="#ffffff" opacity="1.00" d=" M 102.87 38.72 C 109.24 34.89 116.38 31.54 123.97 31.61 C 133.68 31.69 141.97 40.49 142.53 49.92 C 138.86 44.23 133.91 38.85 127.07 37.20 C 119.01 34.76 110.87 37.75 102.87 38.72 Z" />
<path fill="#ffffff" opacity="1.00" d=" M 140.26 33.45 C 144.49 34.73 148.00 38.07 150.00 41.95 C 152.13 46.46 150.20 51.96 146.16 54.67 C 147.23 51.58 148.14 48.28 147.33 45.00 C 146.39 40.43 143.23 36.86 140.26 33.45 Z" />
<path fill="#ffffff" opacity="1.00" d=" M 157.02 42.22 C 158.65 43.98 159.64 46.83 157.88 48.87 C 155.65 51.48 152.86 53.63 149.89 55.33 C 151.07 52.23 152.65 49.30 153.89 46.22 C 154.42 46.98 154.97 47.75 155.51 48.51 C 156.00 46.41 156.48 44.31 157.02 42.22 Z" />
<path fill="#ffffff" opacity="1.00" d=" M 100.21 46.61 C 104.16 45.32 108.52 43.96 112.59 45.58 C 115.97 46.94 119.11 49.15 121.33 52.06 C 118.32 51.11 115.24 50.16 112.04 50.32 C 103.22 50.10 95.58 55.33 87.08 56.75 C 87.50 56.04 88.10 55.51 88.85 55.18 C 94.39 52.49 99.87 49.69 105.32 46.82 C 104.04 46.77 101.49 46.67 100.21 46.61 Z" />
<path fill="#ffffff" opacity="1.00" d=" M 164.49 50.02 C 165.08 47.97 167.41 47.53 168.58 49.36 C 170.86 49.47 173.18 50.04 174.18 52.37 C 170.91 51.76 167.67 51.00 164.49 50.02 Z" />
<path fill="#ffffff" opacity="1.00" d=" M 86.84 59.79 C 89.08 59.51 91.31 59.12 93.51 58.57 C 88.57 61.86 81.36 66.64 75.90 61.77 C 78.11 61.65 80.33 61.68 82.55 61.71 C 83.16 59.85 85.29 60.12 86.84 59.79 Z" />
<path fill="#ffffff" opacity="1.00" d=" M 71.72 65.72 C 81.34 69.11 90.41 62.88 98.82 59.04 C 94.01 64.09 87.81 68.10 81.05 69.94 C 77.34 71.11 73.55 68.90 71.72 65.72 Z" />
<path fill="#ffffff" opacity="1.00" d=" M 160.62 177.91 C 161.23 175.21 159.93 172.37 160.91 169.76 C 163.58 175.63 162.85 184.08 156.44 187.17 C 158.28 184.31 160.31 181.41 160.62 177.91 Z" />
<path fill="#ffffff" opacity="1.00" d=" M 103.55 183.80 C 105.70 185.90 105.84 189.18 107.29 191.72 C 108.58 194.87 111.59 196.62 113.93 198.88 C 106.93 197.84 103.73 190.13 103.55 183.80 Z" />
<path fill="#ffffff" opacity="1.00" d=" M 112.64 214.44 C 105.83 206.89 101.92 196.91 100.79 186.89 C 103.06 191.50 104.30 196.56 106.94 201.00 C 110.97 208.07 116.62 214.62 124.15 218.04 C 126.95 219.36 130.10 219.59 132.91 220.87 C 125.55 223.06 117.64 220.00 112.64 214.44 Z" />
</g>
<g id="#000000ff">
<path fill="#000000" opacity="1.00" d=" M 110.32 24.05 C 122.65 18.05 137.86 18.07 149.83 24.98 C 156.30 28.52 160.40 34.91 164.62 40.69 C 168.01 41.97 171.57 42.69 174.94 44.00 C 174.12 44.23 172.49 44.68 171.67 44.91 C 175.83 46.35 179.65 48.70 182.36 52.22 C 182.18 52.67 181.81 53.56 181.63 54.00 C 183.60 61.44 187.63 68.99 185.63 76.88 C 183.57 83.00 182.84 89.51 180.54 95.55 C 178.65 99.38 176.13 102.93 174.86 107.04 C 174.13 108.70 174.05 110.77 172.53 111.96 C 174.35 100.66 172.68 89.29 172.22 77.96 C 172.06 75.79 172.07 73.56 171.45 71.46 C 169.58 66.53 164.38 62.87 159.03 63.34 C 148.13 64.62 136.85 65.37 126.11 62.61 C 121.77 61.56 118.21 58.80 114.85 56.01 C 112.14 54.76 109.78 57.30 107.74 58.72 C 99.98 65.12 91.70 71.61 81.56 73.54 C 81.86 80.13 81.55 86.78 79.63 93.14 C 79.14 99.91 78.67 106.74 79.09 113.53 C 76.86 111.61 76.17 108.67 74.93 106.12 C 70.55 96.89 70.48 86.43 69.23 76.50 C 67.99 73.00 62.62 72.20 63.66 67.58 C 64.17 67.56 65.18 67.51 65.68 67.49 C 65.52 63.55 66.71 59.34 69.94 56.85 C 75.03 52.92 77.50 46.63 82.51 42.63 C 83.15 42.50 84.43 42.26 85.07 42.14 C 87.59 37.31 90.71 32.76 95.29 29.67 C 100.95 28.58 105.25 23.89 110.59 21.83 L 110.32 24.05 M 102.87 38.72 C 110.87 37.75 119.01 34.76 127.07 37.20 C 133.91 38.85 138.86 44.23 142.53 49.92 C 141.97 40.49 133.68 31.69 123.97 31.61 C 116.38 31.54 109.24 34.89 102.87 38.72 M 140.26 33.45 C 143.23 36.86 146.39 40.43 147.33 45.00 C 148.14 48.28 147.23 51.58 146.16 54.67 C 150.20 51.96 152.13 46.46 150.00 41.95 C 148.00 38.07 144.49 34.73 140.26 33.45 M 157.02 42.22 C 156.48 44.31 156.00 46.41 155.51 48.51 C 154.97 47.75 154.42 46.98 153.89 46.22 C 152.65 49.30 151.07 52.23 149.89 55.33 C 152.86 53.63 155.65 51.48 157.88 48.87 C 159.64 46.83 158.65 43.98 157.02 42.22 M 100.21 46.61 C 101.49 46.67 104.04 46.77 105.32 46.82 C 99.87 49.69 94.39 52.49 88.85 55.18 C 88.10 55.51 87.50 56.04 87.08 56.75 C 95.58 55.33 103.22 50.10 112.04 50.32 C 115.24 50.16 118.32 51.11 121.33 52.06 C 119.11 49.15 115.97 46.94 112.59 45.58 C 108.52 43.96 104.16 45.32 100.21 46.61 M 164.49 50.02 C 167.67 51.00 170.91 51.76 174.18 52.37 C 173.18 50.04 170.86 49.47 168.58 49.36 C 167.41 47.53 165.08 47.97 164.49 50.02 M 86.84 59.79 C 85.29 60.12 83.16 59.85 82.55 61.71 C 80.33 61.68 78.11 61.65 75.90 61.77 C 81.36 66.64 88.57 61.86 93.51 58.57 C 91.31 59.12 89.08 59.51 86.84 59.79 M 71.72 65.72 C 73.55 68.90 77.34 71.11 81.05 69.94 C 87.81 68.10 94.01 64.09 98.82 59.04 C 90.41 62.88 81.34 69.11 71.72 65.72 Z" />
<path fill="#000000" opacity="1.00" d=" M 116.57 120.51 C 120.29 118.33 124.26 120.98 127.26 123.13 C 130.37 121.19 134.12 118.31 137.91 120.35 C 144.77 124.51 147.95 133.40 155.99 135.90 C 160.78 137.95 166.90 133.06 165.87 127.91 C 165.52 125.40 163.60 123.57 162.13 121.66 C 163.84 121.42 166.13 120.88 167.32 122.59 C 171.07 126.77 171.28 132.73 170.95 138.04 C 170.32 146.08 165.28 154.55 157.09 156.63 C 149.96 158.37 143.06 154.62 137.50 150.52 C 133.44 147.58 130.67 143.34 127.61 139.46 C 123.99 142.57 121.81 147.03 117.97 149.92 C 112.81 153.89 106.63 157.45 99.89 156.95 C 94.54 156.74 89.93 153.10 87.27 148.64 C 83.07 142.01 82.66 133.48 85.10 126.14 C 86.22 122.91 89.16 120.49 92.75 121.17 C 90.99 123.84 88.12 126.47 88.69 129.99 C 89.63 134.21 94.50 137.80 98.79 135.89 C 106.80 133.48 109.69 124.49 116.57 120.51 Z" />
<path fill="#000000" opacity="1.00" d=" M 114.05 155.13 C 119.67 152.10 122.84 146.40 127.01 141.84 C 129.98 144.32 131.62 147.93 134.38 150.61 C 140.31 156.98 149.48 159.95 158.04 158.73 C 160.06 158.71 163.15 157.18 163.82 160.07 C 168.38 169.62 169.23 181.56 164.40 191.18 C 163.65 190.44 162.92 189.70 162.19 188.96 C 162.03 198.47 157.13 207.27 150.27 213.64 C 149.98 213.06 149.39 211.91 149.10 211.34 C 146.76 216.94 141.20 219.98 137.50 224.51 C 135.84 226.35 136.54 228.85 137.54 230.82 C 124.69 229.32 111.75 223.44 104.63 212.21 C 102.41 213.18 100.96 210.78 99.69 209.36 C 95.40 203.28 94.15 195.56 93.91 188.27 C 93.17 188.91 92.42 189.55 91.67 190.18 C 86.59 180.07 87.63 168.25 91.21 157.84 C 98.86 159.03 107.20 159.37 114.05 155.13 M 160.62 177.91 C 160.31 181.41 158.28 184.31 156.44 187.17 C 162.85 184.08 163.58 175.63 160.91 169.76 C 159.93 172.37 161.23 175.21 160.62 177.91 M 103.55 183.80 C 103.73 190.13 106.93 197.84 113.93 198.88 C 111.59 196.62 108.58 194.87 107.29 191.72 C 105.84 189.18 105.70 185.90 103.55 183.80 M 112.64 214.44 C 117.64 220.00 125.55 223.06 132.91 220.87 C 130.10 219.59 126.95 219.36 124.15 218.04 C 116.62 214.62 110.97 208.07 106.94 201.00 C 104.30 196.56 103.06 191.50 100.79 186.89 C 101.92 196.91 105.83 206.89 112.64 214.44 Z" />
</g>
</svg>
