<?xml version="1.0" encoding="UTF-8" ?>
<!DOCTYPE svg PUBLIC "-//W3C//DTD SVG 1.1//EN" "http://www.w3.org/Graphics/SVG/1.1/DTD/svg11.dtd">
<svg width="250pt" height="250pt" viewBox="0 0 250 250" version="1.1" xmlns="http://www.w3.org/2000/svg">
<g id="#ffffffff">
<path fill="#ffffff" opacity="1.00" d=" M 96.05 89.30 C 102.97 84.72 110.74 81.14 118.99 79.82 C 126.89 78.54 135.37 81.25 140.82 87.17 C 144.98 91.49 147.11 97.27 148.55 102.98 C 148.27 102.91 147.72 102.77 147.45 102.70 C 143.13 95.41 136.54 89.10 128.18 86.90 C 117.51 83.82 106.54 87.15 96.05 89.30 Z" />
<path fill="#ffffff" opacity="1.00" d=" M 145.19 81.91 C 151.19 84.10 156.63 88.85 158.52 95.08 C 160.05 100.50 157.40 106.21 152.95 109.38 C 154.20 105.43 155.27 101.24 154.31 97.09 C 153.13 91.10 148.97 86.45 145.19 81.91 Z" />
<path fill="#ffffff" opacity="1.00" d=" M 164.83 101.61 C 165.49 98.82 166.21 96.04 166.97 93.28 C 168.71 95.54 170.36 98.77 168.37 101.42 C 165.62 105.19 161.67 107.99 157.69 110.34 C 159.18 106.23 161.27 102.37 163.06 98.39 C 163.50 99.20 164.39 100.81 164.83 101.61 Z" />
<path fill="#ffffff" opacity="1.00" d=" M 93.00 99.36 C 97.76 97.54 103.07 95.77 108.15 97.37 C 113.40 98.93 117.55 102.78 121.36 106.54 C 118.55 105.96 116.02 104.33 113.08 104.20 C 104.34 102.67 95.80 105.88 87.72 108.81 C 83.74 110.01 79.85 112.17 75.56 111.72 C 83.56 107.49 91.89 103.81 99.58 99.05 C 97.38 99.16 95.20 99.45 93.00 99.36 Z" />
<path fill="#ffffff" opacity="1.00" d=" M 176.58 102.13 C 177.70 101.63 178.82 101.14 179.94 100.65 C 180.32 101.15 181.06 102.13 181.43 102.62 C 184.52 102.70 187.84 103.38 189.28 106.49 C 185.83 105.88 182.42 105.14 179.03 104.30 C 177.77 104.21 177.17 103.07 176.58 102.13 Z" />
<path fill="#ffffff" opacity="1.00" d=" M 70.63 116.89 C 75.27 116.36 79.90 115.67 84.47 114.68 C 79.72 117.81 74.58 120.70 68.91 121.66 C 66.07 122.09 63.68 120.17 61.49 118.67 C 64.66 118.58 67.82 118.64 70.99 118.68 C 70.90 118.23 70.72 117.34 70.63 116.89 Z" />
<path fill="#ffffff" opacity="1.00" d=" M 65.97 125.09 C 75.25 123.96 83.23 118.73 91.68 115.18 C 84.64 121.57 76.60 127.72 67.06 129.57 C 62.50 130.54 58.31 127.61 56.06 123.85 C 59.26 124.84 62.61 125.57 65.97 125.09 Z" />
</g>
<g id="#000000ff">
<path fill="#000000" opacity="1.00" d=" M 105.82 69.89 C 118.27 64.02 132.81 62.18 146.10 66.18 C 155.65 68.86 164.71 74.31 170.24 82.71 C 172.13 85.85 175.38 87.97 176.75 91.44 C 181.11 93.15 185.92 93.69 190.03 95.99 C 188.97 96.12 186.85 96.39 185.78 96.53 C 191.16 98.96 196.67 101.71 200.06 106.78 C 199.71 107.23 199.01 108.11 198.66 108.55 C 201.62 118.11 206.38 127.97 204.14 138.21 C 201.47 145.93 200.49 154.13 197.79 161.83 C 195.97 166.10 193.10 169.83 191.38 174.16 C 189.73 177.38 189.28 181.10 187.35 184.18 C 187.22 178.12 188.66 172.11 188.24 166.04 C 187.62 157.36 187.20 148.66 186.62 139.98 C 186.41 137.39 186.55 134.75 185.93 132.21 C 183.74 124.80 175.68 119.50 167.99 120.90 C 156.06 122.49 143.88 122.93 131.96 121.01 C 126.18 120.03 120.38 118.07 115.85 114.22 C 114.04 112.86 112.45 110.80 110.00 110.70 C 106.27 111.51 103.52 114.39 100.58 116.62 C 91.24 124.25 81.08 131.80 68.89 133.90 C 69.02 142.31 69.02 150.86 66.45 158.96 C 65.36 167.92 65.45 177.00 65.50 186.02 C 62.73 183.22 61.77 179.27 60.02 175.85 C 55.82 167.17 55.19 157.42 53.83 148.02 C 53.21 144.33 53.87 140.39 52.44 136.86 C 51.27 133.74 46.94 133.41 46.09 130.13 C 46.01 129.13 45.83 127.14 45.75 126.15 C 46.34 126.20 47.54 126.32 48.13 126.38 C 48.09 121.12 49.60 115.41 53.98 112.11 C 60.34 107.28 63.45 99.53 69.51 94.38 C 70.53 93.16 72.26 93.47 73.66 93.17 C 75.50 89.85 77.12 86.35 79.63 83.47 C 81.92 80.90 84.62 78.78 87.14 76.46 C 87.34 76.74 87.75 77.31 87.96 77.60 C 94.20 73.83 100.45 70.08 106.86 66.62 C 106.60 67.44 106.08 69.07 105.82 69.89 M 96.05 89.30 C 106.54 87.15 117.51 83.82 128.18 86.90 C 136.54 89.10 143.13 95.41 147.45 102.70 C 147.72 102.77 148.27 102.91 148.55 102.98 C 147.11 97.27 144.98 91.49 140.82 87.17 C 135.37 81.25 126.89 78.54 118.99 79.82 C 110.74 81.14 102.97 84.72 96.05 89.30 M 145.19 81.91 C 148.97 86.45 153.13 91.10 154.31 97.09 C 155.27 101.24 154.20 105.43 152.95 109.38 C 157.40 106.21 160.05 100.50 158.52 95.08 C 156.63 88.85 151.19 84.10 145.19 81.91 M 164.83 101.61 C 164.39 100.81 163.50 99.20 163.06 98.39 C 161.27 102.37 159.18 106.23 157.69 110.34 C 161.67 107.99 165.62 105.19 168.37 101.42 C 170.36 98.77 168.71 95.54 166.97 93.28 C 166.21 96.04 165.49 98.82 164.83 101.61 M 93.00 99.36 C 95.20 99.45 97.38 99.16 99.58 99.05 C 91.89 103.81 83.56 107.49 75.56 111.72 C 79.85 112.17 83.74 110.01 87.72 108.81 C 95.80 105.88 104.34 102.67 113.08 104.20 C 116.02 104.33 118.55 105.96 121.36 106.54 C 117.55 102.78 113.40 98.93 108.15 97.37 C 103.07 95.77 97.76 97.54 93.00 99.36 M 176.58 102.13 C 177.17 103.07 177.77 104.21 179.03 104.30 C 182.42 105.14 185.83 105.88 189.28 106.49 C 187.84 103.38 184.52 102.70 181.43 102.62 C 181.06 102.13 180.32 101.15 179.94 100.65 C 178.82 101.14 177.70 101.63 176.58 102.13 M 70.63 116.89 C 70.72 117.34 70.90 118.23 70.99 118.68 C 67.82 118.64 64.66 118.58 61.49 118.67 C 63.68 120.17 66.07 122.09 68.91 121.66 C 74.58 120.70 79.72 117.81 84.47 114.68 C 79.90 115.67 75.27 116.36 70.63 116.89 M 65.97 125.09 C 62.61 125.57 59.26 124.84 56.06 123.85 C 58.31 127.61 62.50 130.54 67.06 129.57 C 76.60 127.72 84.64 121.57 91.68 115.18 C 83.23 118.73 75.25 123.96 65.97 125.09 Z" />
</g>
</svg>
